<svg xmlns="http://www.w3.org/2000/svg" xmlns:xlink="http://www.w3.org/1999/xlink" width="500" zoomAndPan="magnify" viewBox="0 0 375 374.999991" height="500" preserveAspectRatio="xMidYMid meet" version="1.0"><defs><g/></defs><path fill="#ffffff" d="M 152.316406 245.324219 C 150.730469 244.679688 149.050781 243.542969 148.589844 242.792969 C 148.058594 241.933594 142.664062 241.710938 134.011719 242.1875 C 117.671875 243.09375 109.902344 241.429688 106.558594 236.316406 C 103.648438 231.863281 103.398438 216.777344 106.0625 205.902344 C 108.625 195.425781 107.035156 193.996094 99.316406 199.855469 C 88.078125 208.382812 65.175781 222.191406 58.660156 224.367188 C 49.125 227.546875 43.855469 225.207031 38.976562 215.636719 C 37.640625 213.011719 32.90625 207.171875 28.464844 202.660156 C 22.230469 196.339844 20.199219 193.273438 19.589844 189.269531 C 19.15625 186.410156 18.148438 182.257812 17.347656 180.035156 C 16.550781 177.816406 15.371094 172.988281 14.726562 169.308594 C 14.085938 165.628906 12.203125 160.785156 10.546875 158.542969 C 6.941406 153.664062 5.527344 139.800781 8.128906 134.921875 C 9.089844 133.121094 9.695312 127.394531 9.582031 121.160156 C 9.421875 112.265625 9.886719 109.675781 12.367188 105.652344 C 14.003906 102.996094 15.773438 97.65625 16.296875 93.785156 C 16.828125 89.875 18.601562 84.917969 20.289062 82.632812 C 21.960938 80.367188 24.285156 75.617188 25.460938 72.074219 C 27.121094 67.058594 28.632812 65.113281 32.296875 63.28125 C 40.820312 59.015625 45.90625 60.078125 65.09375 70.152344 C 100.558594 88.78125 106.597656 88.578125 99.457031 69 C 97.976562 64.949219 96.769531 60.359375 96.769531 58.796875 C 96.769531 55.289062 100.238281 52.023438 105.308594 50.753906 C 107.957031 50.089844 109.738281 48.375 111.050781 45.222656 C 113.664062 38.960938 120.152344 35.101562 126.992188 35.738281 C 131.121094 36.121094 133.242188 35.511719 136.160156 33.105469 C 141.230469 28.917969 145.542969 29.152344 152.722656 34.007812 C 159.140625 38.347656 162.589844 39.128906 162.589844 36.242188 C 162.589844 31.832031 175.117188 29.777344 180.488281 33.304688 C 183.273438 35.132812 183.929688 35 188.570312 31.691406 C 194.875 27.199219 199.777344 27.265625 209.953125 31.980469 C 220.476562 36.855469 227.324219 45.21875 237.136719 65.199219 C 245.328125 81.875 248.472656 85.773438 251.375 82.863281 C 252.550781 81.6875 251.617188 79.023438 247.539062 71.9375 C 238.476562 56.1875 237.289062 48.8125 243.816406 48.8125 C 245.480469 48.8125 250.101562 49.441406 254.082031 50.214844 C 258.0625 50.988281 263.734375 51.921875 266.691406 52.289062 C 276.988281 53.570312 290.90625 57.347656 296.242188 60.304688 C 299.195312 61.945312 304.730469 67.144531 308.542969 71.863281 C 317.734375 83.25 326.441406 91.894531 330.164062 93.335938 C 331.832031 93.980469 337.574219 94.863281 342.925781 95.289062 C 355.769531 96.316406 357.199219 96.832031 358.199219 100.816406 C 359.65625 106.632812 357.355469 107.347656 336.808594 107.464844 C 326.316406 107.527344 316.519531 107.679688 315.035156 107.804688 C 311.277344 108.121094 297.925781 119.34375 295.96875 123.832031 C 293.671875 129.097656 293.851562 150.429688 296.253906 158.378906 C 297.355469 162.011719 298.257812 167.007812 298.257812 169.484375 C 298.257812 175.648438 294.878906 175.4375 284.894531 168.644531 C 279.003906 164.632812 276.183594 161.554688 273.550781 156.265625 C 271.625 152.394531 270.050781 148.207031 270.050781 146.960938 C 270.050781 143.957031 266.566406 141.179688 264.023438 142.160156 C 262.90625 142.589844 261.992188 144.203125 261.992188 145.75 C 261.992188 148.585938 268.851562 163.511719 271.785156 167.046875 C 275.609375 171.664062 284.363281 175.488281 298.351562 178.652344 C 320.519531 183.667969 325.027344 183.191406 323.234375 176.03125 C 322.632812 173.628906 320.71875 172.304688 315.386719 170.601562 C 305.386719 167.410156 303.136719 164.382812 301.164062 151.484375 C 299.3125 139.378906 300.5625 133.984375 307.550781 123.875 C 313.910156 114.667969 317.957031 114.121094 365.753906 116.011719 C 369.300781 116.152344 368.695312 121.925781 364.625 126.769531 C 360.246094 131.984375 357.246094 132.015625 354.214844 126.875 C 352.90625 124.652344 351.296875 122.835938 350.644531 122.835938 C 349.988281 122.835938 348.378906 124.652344 347.070312 126.875 C 344.035156 132.023438 341.777344 131.960938 336.226562 126.570312 C 330.988281 121.480469 328.246094 122.269531 325.789062 129.570312 C 323.824219 135.417969 322.386719 135.785156 317.871094 131.59375 C 315.847656 129.714844 313.625 128.523438 312.9375 128.949219 C 310.328125 130.566406 311.859375 134.941406 316.203125 138.257812 C 320.015625 141.171875 322.960938 141.921875 335.152344 143.082031 C 358.539062 145.300781 362.070312 148.503906 361.121094 166.644531 C 360.496094 178.609375 358.351562 183.238281 354.171875 181.636719 C 351.476562 180.597656 348.871094 170.640625 349.878906 165.242188 C 351.316406 157.570312 346.355469 155.347656 319.582031 151.652344 C 307.90625 150.042969 310.148438 156.457031 322.902344 161.144531 C 327.984375 163.011719 330.289062 164.902344 333.40625 169.765625 C 336.835938 175.121094 337.289062 176.863281 336.613281 182.171875 C 336.132812 185.972656 336.550781 190.382812 337.699219 193.644531 C 339.019531 197.398438 339.242188 200.894531 338.46875 205.636719 C 337.863281 209.324219 337.324219 214.757812 337.269531 217.722656 C 337.070312 228.4375 331.03125 234.136719 327.5625 226.882812 C 324.964844 221.457031 320.8125 221.882812 318.914062 227.769531 C 317.375 232.535156 313.90625 235.867188 312.226562 234.1875 C 311.714844 233.675781 310.800781 230.101562 310.1875 226.253906 C 308.828125 217.640625 306.339844 214.523438 303.273438 217.597656 C 301.667969 219.203125 301.359375 221.53125 301.921875 227.757812 C 302.527344 234.460938 302.273438 235.980469 300.4375 236.6875 C 296.964844 238.019531 294.632812 235.046875 293.875 228.328125 C 293.152344 221.890625 290.167969 217.421875 287.636719 218.988281 C 286.828125 219.492188 286.164062 222.757812 286.164062 226.25 C 286.164062 233.847656 283.148438 238.917969 278.980469 238.324219 C 276.535156 237.976562 275.882812 236.582031 274.746094 229.304688 C 272.527344 215.078125 265.808594 214.222656 266.246094 228.226562 C 266.464844 235.265625 263.789062 239.566406 260.074219 238.136719 C 258.40625 237.496094 257.957031 235.183594 257.957031 227.261719 C 257.957031 218.488281 257.585938 216.941406 255.0625 215.171875 C 250.476562 211.953125 247.804688 214.460938 245.992188 223.699219 C 244.277344 232.4375 240.070312 238.691406 233.683594 242 C 229.265625 244.289062 223.570312 244.582031 222.335938 242.578125 C 221.792969 241.699219 219.859375 242.195312 217.058594 243.925781 C 211.699219 247.246094 202.050781 247.542969 197.746094 244.523438 C 194.960938 242.566406 194.238281 242.566406 189.359375 244.523438 C 182.347656 247.332031 178.957031 247.214844 173.648438 243.972656 C 169.269531 241.296875 169.257812 241.296875 164.265625 243.976562 C 158.855469 246.882812 156.757812 247.117188 152.316406 245.324219 Z M 186.433594 236.683594 C 190.128906 231.972656 194.355469 210.976562 192.144531 208.308594 C 189.863281 205.550781 186.441406 205.765625 182.445312 208.914062 C 179.417969 211.296875 179.035156 212.765625 178.328125 224.667969 C 177.898438 231.882812 177.84375 238.269531 178.207031 238.859375 C 179.535156 241.011719 183.953125 239.84375 186.433594 236.683594 Z M 212.316406 234.882812 C 214.847656 231.664062 215.164062 229.828125 214.757812 220.8125 C 214.238281 209.367188 212.785156 206.542969 208.574219 208.804688 C 203.941406 211.289062 201.003906 229.855469 204.277344 235.980469 C 206.207031 239.597656 208.898438 239.230469 212.316406 234.882812 Z M 161.078125 234.882812 C 164.246094 232.234375 168.59375 214.421875 167.320312 209.308594 C 166.542969 206.1875 162.289062 205.230469 158.867188 207.40625 C 156.066406 209.1875 150.894531 231.484375 152.386719 235.367188 C 153.375 237.949219 157.699219 237.707031 161.078125 234.882812 Z M 136.578125 230.84375 C 137.824219 228.808594 140.253906 224.988281 141.984375 222.359375 C 147.519531 213.933594 145.214844 203.019531 138.757812 207.101562 C 136.496094 208.53125 127.433594 231.738281 128.476562 233.425781 C 129.941406 235.804688 134.421875 234.375 136.578125 230.84375 Z M 120.15625 230.636719 C 122.238281 228.335938 125.574219 216.546875 127.265625 205.535156 C 127.964844 200.960938 125.289062 197.6875 121.457031 198.429688 C 120.1875 198.679688 117.738281 201.546875 116.019531 204.8125 C 113.527344 209.535156 112.886719 212.847656 112.886719 221.074219 C 112.886719 226.753906 113.292969 231.808594 113.78125 232.300781 C 115.371094 233.894531 117.789062 233.261719 120.15625 230.636719 Z M 234.574219 228.488281 C 235.785156 226.636719 237.046875 221.339844 237.378906 216.710938 C 237.867188 209.859375 237.46875 207.488281 235.226562 203.925781 C 231.925781 198.679688 229.234375 198.378906 226.261719 202.929688 C 224.3125 205.910156 224.242188 207.609375 225.664062 217.398438 C 226.550781 223.496094 227.511719 229.246094 227.800781 230.171875 C 228.664062 232.957031 232.234375 232.070312 234.574219 228.488281 Z M 77.65625 202.019531 C 93.148438 192.386719 97.488281 188.183594 95.984375 184.265625 C 94.421875 180.183594 90.058594 181.703125 72.585938 192.417969 C 59.398438 200.5 53.789062 205.394531 53.789062 208.804688 C 53.785156 215.304688 58.386719 213.996094 77.65625 202.019531 Z M 322.996094 205.464844 C 327.171875 203.859375 325.339844 199.625 319.171875 196.621094 C 313.628906 193.921875 312.25 193.8125 298.742188 194.980469 C 270.40625 197.433594 253.722656 193.316406 246.460938 182.074219 C 238.367188 169.539062 235.164062 143.621094 239.640625 126.875 C 241.796875 118.8125 241.597656 117.546875 238.582031 120.058594 C 232.933594 124.753906 231.652344 146.375 235.671875 169.210938 C 238.269531 183.96875 239.664062 187.335938 245.894531 193.867188 C 256.027344 204.488281 262.101562 206.007812 295.121094 206.160156 C 309.285156 206.226562 321.828125 205.914062 322.996094 205.464844 Z M 203.398438 196.039062 C 220.859375 193.945312 226.148438 192.703125 227.59375 190.359375 C 228.027344 189.65625 227.148438 183.410156 225.636719 176.480469 C 220.128906 151.230469 219.109375 128.539062 223.136719 120.816406 C 235.496094 97.101562 235.339844 97.492188 233.761719 94.535156 C 231.480469 90.265625 224.492188 87.914062 209.886719 86.5 C 185.773438 84.167969 163.160156 86.574219 139.753906 93.96875 C 124.839844 98.675781 119.589844 101.449219 114.4375 107.328125 C 106.574219 116.300781 103.339844 129.710938 104.230469 149.59375 C 104.855469 163.480469 106.488281 168.644531 113.082031 177.597656 C 119.953125 186.925781 125.160156 190.632812 136.394531 194.179688 C 153.035156 199.441406 170.902344 199.9375 203.398438 196.039062 Z M 141.714844 183.453125 C 129.703125 180.332031 119.328125 174.167969 115.957031 168.148438 C 115.058594 166.542969 114.304688 162.398438 114.277344 158.933594 C 114.238281 153.835938 114.851562 152.152344 117.503906 150.058594 C 120.527344 147.675781 124.128906 147.421875 164.835938 146.699219 C 210.996094 145.882812 212.785156 146.070312 212.050781 151.667969 C 211.847656 153.222656 212.726562 155.980469 214 157.804688 C 215.371094 159.761719 216.316406 163.625 216.316406 167.242188 C 216.316406 175.273438 210.664062 182.59375 203.25 184.160156 C 193.570312 186.210938 150.417969 185.710938 141.714844 183.453125 Z M 165.386719 174.371094 C 169.632812 171.859375 174.675781 162.519531 174.675781 157.171875 C 174.675781 151.539062 170.125 152.871094 167.207031 159.359375 C 165.828125 162.421875 162.957031 166.675781 160.824219 168.808594 C 158.582031 171.054688 157.269531 173.53125 157.710938 174.679688 C 158.703125 177.269531 160.621094 177.191406 165.386719 174.371094 Z M 184.050781 174.273438 C 187.871094 171.175781 191.296875 158.585938 189.324219 154.894531 C 188.207031 152.804688 187.535156 152.597656 186 153.871094 C 184.945312 154.75 184.078125 156.453125 184.074219 157.65625 C 184.074219 158.863281 182.261719 163.480469 180.050781 167.921875 C 177.839844 172.363281 176.027344 176.148438 176.027344 176.335938 C 176.007812 177.671875 181.652344 176.222656 184.050781 174.273438 Z M 202.839844 171.375 C 206.222656 165.042969 202.511719 149.734375 198.898438 155.136719 C 198.160156 156.246094 197.542969 159.984375 197.53125 163.4375 C 197.519531 166.894531 197.144531 170.679688 196.695312 171.851562 C 195.476562 175.035156 201.117188 174.597656 202.839844 171.375 Z M 146.816406 169.230469 C 154.621094 163.914062 158.082031 155.136719 152.371094 155.136719 C 149.722656 155.136719 137.066406 167.886719 137.066406 170.550781 C 137.066406 173.636719 141.15625 173.082031 146.816406 169.230469 Z M 131.085938 160.996094 C 137.828125 153.707031 133.414062 150.574219 125.070312 156.722656 C 120.632812 159.996094 119.832031 161.191406 121.070312 162.6875 C 123.46875 165.585938 127.464844 164.910156 131.085938 160.996094 Z M 120.761719 137.804688 C 118.816406 136.257812 116.832031 133.441406 116.359375 131.550781 C 115.3125 127.367188 119.230469 118.023438 123.789062 113.835938 C 129.671875 108.429688 164.304688 98.609375 170.511719 100.582031 C 171.84375 101.007812 176.964844 100.417969 181.890625 99.273438 C 188.09375 97.832031 193.570312 97.46875 199.707031 98.101562 C 207.472656 98.898438 209.210938 99.621094 213.746094 103.945312 L 218.925781 108.882812 L 218.398438 120.074219 C 218.027344 128.046875 217.253906 131.894531 215.707031 133.445312 C 213.960938 135.195312 207.84375 135.953125 184.367188 137.316406 C 121.695312 140.960938 124.710938 140.9375 120.761719 137.804688 Z M 144.238281 130.316406 C 144.71875 129.054688 142.804688 126.933594 138.78125 124.257812 C 131.695312 119.558594 131.671875 119.550781 128.519531 121.859375 C 125.199219 124.292969 126.945312 127.628906 132.804688 130.066406 C 139.105469 132.6875 143.296875 132.777344 144.238281 130.316406 Z M 159.902344 128.171875 C 159.902344 126.425781 156.222656 120.429688 152.703125 116.441406 C 150.238281 113.648438 143.78125 112.15625 143.78125 114.382812 C 143.78125 115.703125 157.535156 129.566406 158.847656 129.566406 C 159.429688 129.566406 159.902344 128.9375 159.902344 128.171875 Z M 174.675781 128.289062 C 174.675781 127.589844 172.53125 123.351562 169.910156 118.867188 C 166.136719 112.414062 164.460938 110.722656 161.851562 110.722656 C 157.703125 110.722656 157.726562 111.773438 162.007812 118.273438 C 167.046875 125.914062 174.675781 131.949219 174.675781 128.289062 Z M 191.855469 125.863281 C 191.578125 125.308594 190.09375 122.128906 188.5625 118.796875 C 185.257812 111.628906 180.957031 107.394531 178.09375 108.496094 C 176.371094 109.15625 176.300781 109.898438 177.648438 113.03125 C 180.421875 119.472656 186.851562 126.875 189.675781 126.875 C 191.15625 126.875 192.132812 126.417969 191.855469 125.863281 Z M 206.894531 121.824219 C 206.863281 116.457031 201.355469 107.359375 198.140625 107.359375 C 196.1875 107.359375 195.394531 108.410156 195.101562 111.402344 C 194.800781 114.460938 195.828125 116.679688 199.3125 120.488281 C 204.789062 126.476562 206.921875 126.851562 206.894531 121.824219 Z M 53.578125 191.234375 C 75.964844 179.121094 80.410156 176.375 84.519531 172.125 C 92.617188 163.753906 86.617188 162.164062 70.945312 168.527344 C 42.117188 180.238281 36.882812 183.097656 34.960938 188.167969 C 34.0625 190.535156 34.105469 192.527344 35.097656 194.382812 C 37.003906 197.953125 43.0625 196.921875 53.578125 191.234375 Z M 281.867188 183.257812 C 281.59375 182.441406 278.976562 180.960938 276.046875 179.964844 C 269.429688 177.726562 260.632812 168.3125 256.019531 158.539062 C 251.601562 149.179688 251.246094 137.015625 255.25 131.917969 C 258.71875 127.5 266.421875 125.945312 270.761719 128.796875 C 273.832031 130.8125 278.101562 138.773438 279.835938 145.714844 C 280.300781 147.566406 281.589844 150.289062 282.707031 151.773438 C 284.5625 154.230469 284.742188 153.195312 284.78125 139.929688 C 284.820312 126.117188 284.65625 125.242188 281.453125 122.265625 C 277.179688 118.300781 268.800781 116.914062 261.804688 119.011719 C 251.140625 122.214844 245.179688 137.003906 247.296875 155 C 248.578125 165.890625 257.019531 179.46875 264.425781 182.550781 C 270.285156 184.984375 282.605469 185.488281 281.867188 183.257812 Z M 43.359375 170.738281 C 49.464844 168.21875 60.199219 164.21875 67.21875 161.851562 C 82.699219 156.632812 87.710938 154.144531 87.003906 152.03125 C 86.347656 150.074219 82.671875 149.875 77.292969 151.507812 C 75.078125 152.175781 71.449219 152.9375 69.234375 153.195312 C 67.019531 153.453125 57.773438 155.152344 48.691406 156.972656 C 27.144531 161.292969 21.996094 164.625 25.375 172.046875 C 27.355469 176.410156 30.117188 176.210938 43.359375 170.738281 Z M 54.070312 146.386719 C 79.480469 142.789062 84.679688 141.28125 84.679688 137.515625 C 84.679688 134 81.417969 133.484375 64.042969 134.242188 C 36.308594 135.453125 23.886719 137.285156 21.167969 140.554688 C 18.265625 144.039062 18.710938 145.859375 22.996094 148.050781 C 27.273438 150.238281 26.640625 150.273438 54.070312 146.386719 Z M 83.058594 124.40625 C 82.628906 122.160156 72.441406 118.914062 41.871094 111.292969 C 22.660156 106.5 17.519531 107.972656 17.519531 118.265625 C 17.519531 125.492188 17.320312 125.433594 41.695312 125.871094 C 86.601562 126.683594 83.519531 126.792969 83.058594 124.40625 Z M 87.367188 111.472656 C 87.367188 108.90625 86.558594 108.460938 68.5625 101.160156 C 52.558594 94.664062 33.746094 89.6875 30.261719 91.023438 C 29.097656 91.472656 28.265625 93.507812 28.265625 95.90625 C 28.265625 100.65625 29.046875 101.074219 47.742188 106.328125 C 71.417969 112.976562 87.367188 115.050781 87.367188 111.472656 Z M 292.007812 108.125 C 297.027344 105.832031 297.898438 104.757812 299.355469 99.039062 C 301.289062 91.46875 300.277344 84.667969 296.4375 79.429688 C 288.976562 69.261719 266.007812 80.671875 266.023438 94.535156 C 266.027344 100.222656 270.246094 107.65625 274.421875 109.335938 C 279.378906 111.335938 285.964844 110.878906 292.007812 108.125 Z M 281.101562 98.253906 C 275.757812 95.75 275.171875 85.605469 280.265625 83.730469 C 281.910156 83.125 284.4375 83.359375 286.308594 84.296875 C 288.867188 85.574219 289.527344 86.960938 289.527344 91.082031 C 289.523438 97.445312 285.925781 100.511719 281.101562 98.253906 Z M 102.8125 100.695312 C 102.8125 99.992188 98.882812 98.019531 94.082031 96.3125 C 89.28125 94.605469 81.90625 90.789062 77.699219 87.835938 C 66.351562 79.871094 50.164062 71.691406 45.753906 71.691406 C 41.488281 71.691406 39.527344 75.042969 41.023438 79.769531 C 42.15625 83.34375 43.621094 84.035156 67.882812 92.527344 C 79.328125 96.535156 89.753906 100.449219 91.054688 101.222656 C 93.875 102.910156 102.8125 102.507812 102.8125 100.695312 Z M 129.007812 87.945312 C 129.007812 86.519531 127.488281 83.546875 125.628906 81.335938 C 123.773438 79.125 121.363281 75.183594 120.277344 72.574219 C 117.792969 66.617188 115.890625 65.414062 113.203125 68.105469 C 111.285156 70.027344 111.417969 70.691406 114.675781 75.402344 C 116.648438 78.253906 118.261719 81.226562 118.261719 82.011719 C 118.261719 82.796875 119.511719 85.035156 121.042969 86.988281 C 124.347656 91.195312 129.007812 91.757812 129.007812 87.945312 Z M 149.808594 81.140625 C 151.023438 79.171875 148.464844 75.183594 144.679688 73.15625 C 142.691406 72.089844 140.394531 68.84375 139.003906 65.132812 C 135.617188 56.105469 132.035156 51.5 128.390625 51.5 C 124.167969 51.5 123.242188 54.679688 125.726562 60.660156 C 131.515625 74.613281 146.15625 87.0625 149.808594 81.140625 Z M 169.898438 76.625 C 172.058594 75.042969 172.15625 74.25 170.722656 69.90625 C 168.71875 63.8125 158.5 49.714844 153.898438 46.695312 C 151.078125 44.84375 150.125 44.757812 148.390625 46.195312 C 145.6875 48.441406 146.683594 52.5 152.488281 62.941406 C 157.484375 71.921875 160.910156 76.265625 163.933594 77.429688 C 166.96875 78.601562 167.253906 78.5625 169.898438 76.625 Z M 224.324219 76.464844 C 226.648438 73.65625 225.15625 70.046875 215.675781 55.535156 C 206.402344 41.34375 204.136719 38.953125 200.597656 39.628906 C 196.339844 40.441406 197.179688 45.738281 203.667969 58.917969 C 211.933594 75.710938 219.570312 82.203125 224.324219 76.464844 Z M 197.511719 74.308594 C 197.511719 72.785156 194.164062 65.835938 190.066406 58.863281 C 179.617188 41.074219 174.597656 38.148438 174.441406 49.757812 C 174.300781 59.777344 180.6875 70.039062 190.125 74.957031 C 195.550781 77.785156 197.511719 77.613281 197.511719 74.308594 Z M 345.953125 207.964844 C 347.25 190.902344 347.667969 189.347656 351.4375 187.628906 C 357.871094 184.6875 361.121094 190.769531 357.945312 199.796875 C 355.574219 206.519531 348.21875 218.394531 346.417969 218.394531 C 345.671875 218.394531 345.480469 214.121094 345.953125 207.964844 Z M 345.953125 207.964844 " fill-opacity="1" fill-rule="nonzero"/><g fill="#ffffff" fill-opacity="1"><g transform="translate(91.330107, 324.767703)"><g><path d="M 2.5 0 L 2.5 -56.578125 L 14.15625 -56.578125 L 19.359375 -29.5 L 19.359375 -56.578125 L 30.296875 -56.578125 L 30.296875 0 L 19.234375 0 L 13.5625 -28.3125 L 13.5625 0 Z M 2.5 0 "/></g></g></g><g fill="#ffffff" fill-opacity="1"><g transform="translate(120.829348, 324.767703)"><g><path d="M 0.984375 0 L 6.453125 -56.578125 L 25.625 -56.578125 L 31.015625 0 L 20.28125 0 L 19.5 -9.15625 L 12.640625 -9.15625 L 11.984375 0 Z M 13.5 -18.171875 L 18.640625 -18.171875 L 16.140625 -46.953125 L 15.609375 -46.953125 Z M 5.328125 -60.453125 L 5.328125 -65.328125 L 26.265625 -65.328125 L 26.265625 -60.453125 Z M 5.328125 -60.453125 "/></g></g></g><g fill="#ffffff" fill-opacity="1"><g transform="translate(149.472573, 324.767703)"><g><path d="M 2.5 0 L 2.5 -56.578125 L 19.75 -56.578125 L 24.5 -22.0625 L 29.234375 -56.578125 L 46.625 -56.578125 L 46.625 0 L 36.28125 0 L 36.28125 -40.765625 L 29.765625 0 L 19.625 0 L 12.703125 -40.765625 L 12.703125 0 Z M 2.5 0 "/></g></g></g><g fill="#ffffff" fill-opacity="1"><g transform="translate(195.302043, 324.767703)"><g><path d="M 0.984375 0 L 6.453125 -56.578125 L 25.625 -56.578125 L 31.015625 0 L 20.28125 0 L 19.5 -9.15625 L 12.640625 -9.15625 L 11.984375 0 Z M 13.5 -18.171875 L 18.640625 -18.171875 L 16.140625 -46.953125 L 15.609375 -46.953125 Z M 13.5 -18.171875 "/></g></g></g><g fill="#ffffff" fill-opacity="1"><g transform="translate(223.945264, 324.767703)"><g><path d="M 2.5 0 L 2.5 -56.578125 L 13.703125 -56.578125 L 13.703125 -33.921875 L 18.96875 -56.578125 L 30.359375 -56.578125 L 24.03125 -30.6875 L 31.671875 0 L 19.953125 0 L 13.765625 -27.390625 L 13.765625 0 Z M 2.5 0 "/></g></g></g><g fill="#ffffff" fill-opacity="1"><g transform="translate(251.732467, 324.767703)"><g><path d="M 0.984375 0 L 6.453125 -56.578125 L 25.625 -56.578125 L 31.015625 0 L 20.28125 0 L 19.5 -9.15625 L 12.640625 -9.15625 L 11.984375 0 Z M 13.5 -18.171875 L 18.640625 -18.171875 L 16.140625 -46.953125 L 15.609375 -46.953125 Z M 13.5 -18.171875 "/></g></g></g></svg>